:FULLY-SPECIFIED
:FORCE-ALL-JOINTS-BE-3DOF
:DEGREES
2548
root 4.05578 13.7432 -23.6319 1019.14 87.2681 -63.8491
lfemur -36.6175 3.99974 -14.0272
ltibia 89.6154 0 0
lfoot -25.7627 27.3642 0
ltoes -39.7031 0 0
rfemur -55.2429 -18.9649 6.14569
rtibia 57.11 0 0
rfoot 5.03875 6.02974 0
rtoes 7.17076 0 0
lowerback 17.2216 -0.512058 -3.44936
upperback -0.526793 -0.999905 3.16623
thorax -10.1699 -0.170061 5.6975
lowerneck 5.32712 -14.3725 -15.3123
upperneck -0.154112 -20.1323 14.8313
head 2.15916 -10.2202 6.24391
lclavicle 1.03324e-14 -1.00991e-14 0
lhumerus -48.9236 -46.7741 113.251
lradius 105.718 0 0
lwrist 79.6495 0 0
lhand 6.83374 400.08 0
lfingers 7.12502 0 0
lthumb 32.119 -652.712 0
rclavicle 1.03324e-14 -1.00991e-14 0
rhumerus 9.88651 -13.0971 -59.5131
rradius 73.4374 0 0
rwrist 17.5432 0 0
rhand -36.2678 -406.42 0
rfingers 7.12502 0 0
rthumb -9.36799 283.801 0
2549
root 4.05381 13.7462 -23.6666 1019.89 86.4289 -64.4946
lfemur -36.6441 4.05517 -14.0652
ltibia 89.6052 0 0
lfoot -25.7925 27.2672 0
ltoes -39.9289 0 0
rfemur -55.2534 -19.0841 6.18597
rtibia 57.0814 0 0
rfoot 5.02723 6.13042 0
rtoes 7.27049 0 0
lowerback 17.2329 -0.515434 -3.47096
upperback -0.518865 -1.00923 3.17119
thorax -10.1699 -0.173163 5.71748
lowerneck 5.34489 -14.3315 -15.3197
upperneck -0.170854 -20.0782 14.8556
head 2.14481 -10.192 6.25376
lclavicle 1.04484e-14 -9.84718e-15 0
lhumerus -48.3343 -46.9639 112.941
lradius 105.682 0 0
lwrist 79.2587 0 0
lhand 6.93583 399.779 0
lfingers 7.12502 0 0
lthumb 32.2177 -653.009 0
rclavicle 1.04484e-14 -9.84718e-15 0
rhumerus 10.1001 -12.9416 -59.3671
rradius 73.3001 0 0
rwrist 17.6702 0 0
rhand -36.2865 -406.471 0
rfingers 7.12502 0 0
rthumb -9.38577 283.744 0
2550
root 4.0494 13.75 -23.7032 1020.7 85.5207 -65.1422
lfemur -36.6786 4.11952 -14.1015
ltibia 89.5933 0 0
lfoot -25.8136 27.1626 0
ltoes -40.1444 0 0
rfemur -55.2545 -19.1991 6.23775
rtibia 57.0606 0 0
rfoot 4.99984 6.21926 0
rtoes 7.3592 0 0
lowerback 17.245 -0.516709 -3.49066
upperback -0.511088 -1.0155 3.17543
thorax -10.1707 -0.174973 5.73475
lowerneck 5.35663 -14.2789 -15.3189
upperneck -0.184745 -20.008 14.871
head 2.13056 -10.1557 6.26011
lclavicle 1.05849e-14 -9.58139e-15 0
lhumerus -47.6843 -47.1413 112.593
lradius 105.648 0 0
lwrist 78.8208 0 0
lhand 7.02009 399.468 0
lfingers 7.12502 0 0
lthumb 32.2992 -653.314 0
rclavicle 1.05849e-14 -9.58139e-15 0
rhumerus 10.3017 -12.7414 -59.2335
rradius 73.1783 0 0
rwrist 17.7723 0 0
rhand -36.286 -406.51 0
rfingers 7.12502 0 0
rthumb -9.38499 283.701 0
2551
root 4.04259 13.7545 -23.7414 1021.59 84.5452 -65.7918
lfemur -36.7209 4.19261 -14.1362
ltibia 89.5795 0 0
lfoot -25.8263 27.0504 0
ltoes -40.3496 0 0
rfemur -55.2465 -19.3099 6.30079
rtibia 57.0475 0 0
rfoot 4.95691 6.29649 0
rtoes 7.43711 0 0
lowerback 17.2579 -0.515924 -3.5085
upperback -0.50346 -1.01878 3.17895
thorax -10.1721 -0.175516 5.74937
lowerneck 5.36246 -14.2149 -15.31
upperneck -0.195839 -19.922 14.8777
head 2.11641 -10.1115 6.26303
lclavicle 1.07414e-14 -9.30209e-15 0
lhumerus -46.975 -47.3067 112.208
lradius 105.614 0 0
lwrist 78.3368 0 0
lhand 7.08682 399.147 0
lfingers 7.12502 0 0
lthumb 32.3638 -653.628 0
rclavicle 1.07414e-14 -9.30209e-15 0
rhumerus 10.4916 -12.4973 -59.1121
rradius 73.0719 0 0
rwrist 17.85 0 0
rhand -36.2666 -406.537 0
rfingers 7.12502 0 0
rthumb -9.36603 283.67 0
2552
root 4.03344 13.7598 -23.7814 1022.55 83.5037 -66.4433
lfemur -36.7707 4.27424 -14.1692
ltibia 89.5641 0 0
lfoot -25.8308 26.9309 0
ltoes -40.5448 0 0
rfemur -55.2296 -19.4167 6.37484
rtibia 57.0419 0 0
rfoot 4.89876 6.36232 0
rtoes 7.50442 0 0
lowerback 17.2715 -0.513122 -3.52451
upperback -0.49598 -1.01912 3.18177
thorax -10.1743 -0.174816 5.76139
lowerneck 5.36251 -14.1397 -15.2932
upperneck -0.204192 -19.8205 14.8759
head 2.10234 -10.0594 6.26259
lclavicle 1.09173e-14 -9.00967e-15 0
lhumerus -46.2077 -47.4603 111.786
lradius 105.581 0 0
lwrist 77.8077 0 0
lhand 7.13634 398.817 0
lfingers 7.12502 0 0
lthumb 32.412 -653.95 0
rclavicle 1.09173e-14 -9.00967e-15 0
rhumerus 10.67 -12.2102 -59.0028
rradius 72.9805 0 0
rwrist 17.9038 0 0
rhand -36.2287 -406.553 0
rfingers 7.12502 0 0
rthumb -9.32926 283.652 0
2553
root 4.02199 13.7657 -23.823 1023.57 82.3979 -67.0966
lfemur -36.828 4.36423 -14.2006
ltibia 89.5469 0 0
lfoot -25.8271 26.8043 0
ltoes -40.73 0 0
rfemur -55.2038 -19.5194 6.45967
rtibia 57.0437 0 0
rfoot 4.82572 6.41699 0
rtoes 7.56134 0 0
lowerback 17.2859 -0.508344 -3.53873
upperback -0.488645 -1.0166 3.18391
thorax -10.1772 -0.1729 5.77086
lowerneck 5.3569 -14.0536 -15.2687
upperneck -0.209861 -19.7038 14.8657
head 2.08838 -9.99972 6.25886
lclavicle 1.1112e-14 -8.70447e-15 0
lhumerus -45.3836 -47.6023 111.33
lradius 105.549 0 0
lwrist 77.2345 0 0
lhand 7.16897 398.477 0
lfingers 7.12502 0 0
lthumb 32.4438 -654.28 0
rclavicle 1.1112e-14 -8.70447e-15 0
rhumerus 10.837 -11.8812 -58.9052
rradius 72.9038 0 0
rwrist 17.934 0 0
rhand -36.1727 -406.557 0
rfingers 7.12502 0 0
rthumb -9.27506 283.646 0
2554
root 4.0083 13.7724 -23.8662 1024.67 81.2293 -67.7516
lfemur -36.8925 4.46239 -14.2304
ltibia 89.528 0 0
lfoot -25.8154 26.6706 0
ltoes -40.9056 0 0
rfemur -55.1695 -19.6182 6.55503
rtibia 57.0528 0 0
rfoot 4.73812 6.46072 0
rtoes 7.60808 0 0
lowerback 17.3009 -0.501632 -3.55119
upperback -0.481453 -1.01126 3.18536
thorax -10.1807 -0.169793 5.77783
lowerneck 5.34574 -13.9569 -15.2367
upperneck -0.212899 -19.5723 14.8473
head 2.07451 -9.93258 6.25191
lclavicle 1.13249e-14 -8.38686e-15 0
lhumerus -44.5043 -47.7328 110.839
lradius 105.519 0 0
lwrist 76.6183 0 0
lhand 7.18503 398.129 0
lfingers 7.12502 0 0
lthumb 32.4598 -654.617 0
rclavicle 1.13249e-14 -8.38686e-15 0
rhumerus 10.993 -11.5112 -58.8192
rradius 72.8415 0 0
rwrist 17.9412 0 0
rhand -36.0991 -406.549 0
rfingers 7.12502 0 0
rthumb -9.2038 283.651 0
2555
root 3.99241 13.7797 -23.9109 1025.83 79.9994 -68.4082
lfemur -36.964 4.56852 -14.2586
ltibia 89.5075 0 0
lfoot -25.796 26.5301 0
ltoes -41.0717 0 0
rfemur -55.1268 -19.7132 6.66068
rtibia 57.069 0 0
rfoot 4.63626 6.49374 0
rtoes 7.64486 0 0
lowerback 17.3167 -0.493027 -3.56193
upperback -0.474401 -1.00317 3.18616
thorax -10.1849 -0.16552 5.78235
lowerneck 5.32916 -13.8497 -15.1972
upperneck -0.213363 -19.4263 14.821
head 2.06074 -9.85817 6.24181
lclavicle 1.15556e-14 -8.05722e-15 0
lhumerus -43.5709 -47.8522 110.314
lradius 105.489 0 0
lwrist 75.96 0 0
lhand 7.18483 397.772 0
lfingers 7.12502 0 0
lthumb 32.4601 -654.961 0
rclavicle 1.15556e-14 -8.05722e-15 0
rhumerus 11.1381 -11.101 -58.7445
rradius 72.7933 0 0
rwrist 17.9259 0 0
rhand -36.0081 -406.531 0
rfingers 7.12502 0 0
rthumb -9.11586 283.668 0
